<?xml version="1.0" encoding="UTF-8" standalone="no"?>
<svg version="1.1" xmlns="http://www.w3.org/2000/svg" xmlns:xlink="http://www.w3.org/1999/xlink" width="121.235" height="121.235">
	<defs>
		<clipPath id="clip_dp_001" clipPathUnits="userSpaceOnUse" clip-rule="evenodd">
			<path d="M 9.316,8.532 L 111.379,8.532 L 111.379,112.817 L 9.316,112.817 Z " clip-rule="evenodd"/>
		</clipPath>
		<linearGradient id="grad_dp_001" gradientUnits="userSpaceOnUse" x1="1380.17" y1="588.011" x2="839.46" y2="-784.107">
			<stop offset="0" stop-color="#1746bb"/>
			<stop offset="1" stop-color="black"/>
		</linearGradient>
	</defs>
	<path id="dp_path001" transform="matrix(1,0,0,1,5.00166,5.00166)" fill="#323335" fill-rule="evenodd" stroke="#5dab37" stroke-width="10" d="M 55.616,0 C 86.332,0 111.232,24.9 111.232,55.616 C 111.232,86.332 86.332,111.232 55.616,111.232 C 24.9,111.232 0,86.332 0,55.616 C 0,24.9 24.9,0 55.616,0 Z "/>
	<path id="dp_path002" transform="matrix(1,0,0,1,9.218,9.218)" fill="white" fill-rule="evenodd" stroke="none" stroke-width="0" d="M 51.3987,0 C 79.7853,0 102.797,23.012 102.797,51.3987 C 102.797,79.7853 79.7853,102.797 51.3987,102.797 C 23.012,102.797 0,79.7853 0,51.3987 C 0,23.012 23.012,0 51.3987,0 Z "/>
	<g id="clip">
		<g id="dp_dp003" clip-path="url(#clip_dp_001)">
			<path id="dp_path004" transform="matrix(0.0435608,0,0,0.0435608,53.8889,38.7369)" fill="url(#grad_dp_001)" stroke="#fffaff" stroke-width="17.2947" d="M 1291.58,502.296 C 1291.58,-125.719 782.475,-634.825 154.46,-634.825 C -473.555,-634.825 -982.661,-125.719 -982.661,502.296 C -982.661,1130.31 -473.555,1639.42 154.46,1639.42 C 782.475,1639.42 1291.58,1130.31 1291.58,502.296 Z "/>
			<path id="dp_path005" transform="matrix(0.0606091,0,0,0.0593553,79.4792,26.169)" fill="#f2f2f2" stroke="none" stroke-width="0" d="M -482.021,-149.644 C -478.549,-148.253 -477.488,-142.492 -479.545,-136.2 C -484.604,-120.727 -484.493,-73.9787 -479.364,-59.844 C -477.484,-54.668 -476.775,-54.0187 -473.532,-54.508 C -454.564,-57.3707 -442.373,-58.2533 -431.787,-57.528 C -398.747,-55.2667 -383.341,-53.6107 -373.051,-51.2173 C -358.185,-47.7613 -338.855,-42.8547 -334.427,-41.4147 C -331.639,-40.508 -328.299,-41.4947 -318.945,-45.9853 C -303.779,-53.2667 -291.268,-58.7733 -286.784,-60.1427 C -281.12,-61.872 -259.852,-73.3347 -254.521,-77.532 C -248.452,-82.3093 -244.788,-81.62 -235.652,-73.9827 C -225.043,-65.1147 -218.195,-48.8867 -212.936,-20.1493 C -208.139,6.06133 -206.451,25.032 -208.005,35.2573 C -208.709,39.8867 -209.332,45.188 -209.388,47.04 C -209.445,48.8907 -210.193,51.1 -211.052,51.9493 C -246.832,54.0573 -261.984,52.5027 -297.672,51.1853 C -313.201,87.5733 -341.331,121.881 -367.349,148.153 C -390.961,171.743 -390.609,169.695 -373.075,181.399 C -354.168,194.017 -336.639,201.649 -313.976,207.129 C -306.828,209.344 -289.287,213.177 -290.161,221.348 C -320.235,265.724 -436.636,261.297 -479.657,254.739 C -491.14,252.875 -502.356,249.559 -506.271,246.867 C -509.504,244.645 -514.565,244.405 -518.117,246.307 C -524.663,249.809 -593.452,269.741 -620.631,276.011 C -652.795,283.429 -678.836,285.981 -714.613,285.223 C -769.4,284.06 -806.619,278.311 -841.395,265.637 C -852.131,261.724 -854.156,260.463 -856.041,256.517 C -858.06,252.293 -858.024,251.367 -855.593,244.593 C -852.497,235.969 -834.215,204.915 -826.961,195.961 C -824.189,192.539 -819.396,186.123 -816.311,181.701 C -791.427,146.053 -769.085,118.681 -749.447,99.784 C -735.523,86.384 -711.859,65.696 -700.884,57.3267 C -697.248,54.5533 -689.224,47.8213 -683.052,42.3653 C -676.88,36.9093 -667.412,29.664 -662.011,26.2653 C -656.611,22.8667 -648.089,17.432 -643.075,14.1893 C -638.06,10.9453 -631.325,6.652 -628.111,4.648 C -623.104,1.52667 -621.933,-0.162667 -619.956,-7.11867 C -614.557,-27.984 -604.149,-47.9467 -592.767,-63.6333 C -575.047,-83.7213 -512.737,-160.815 -482.021,-149.643 Z M -460.191,-10.968 C -462.163,-7.95733 -462.275,-6.54533 -460.9,-1.95733 C -459.603,2.372 -458.421,3.67067 -455.117,4.396 C -452.833,4.89733 -449.681,4.90133 -448.113,4.40133 C -441.432,2.28133 -439.743,-10.704 -445.827,-13.1627 C -451.924,-15.6253 -457.72,-14.74 -460.191,-10.9693 Z M -417.895,51.8853 C -421.515,54.532 -421.387,66.564 -417.709,69.2907 C -414.936,71.3467 -408.287,70.6893 -405.096,68.0413 C -402.429,65.828 -402.715,55.664 -405.531,52.552 C -408.267,49.528 -414.231,49.2067 -417.895,51.8853 Z M -696.839,139.059 C -710.437,175.344 -684.5,221.796 -650.809,222.5 C -632.047,222.445 -607.341,211.905 -594.4,198.437 C -581.793,178.115 -582.839,150.405 -593.457,131.463 C -622.484,92.8533 -676.983,102.691 -696.839,139.059 Z M -403.756,115.257 C -409.471,120.972 -406.783,135.559 -400.017,135.547 C -386.379,133.153 -388.429,122.876 -393.105,115.564 C -395.724,112.535 -400.885,112.387 -403.756,115.259 Z M -194.905,-82.5307 C 21.832,-30.7987 181.145,96.056 273.603,235.891 C 341.781,344.067 379.973,451.475 383.297,561.277 C 386.695,595.916 386.76,665.056 383.423,694.536 C 380.743,725.129 375.411,749.111 368.421,780.101 C 296.028,1097.56 69.104,1277.81 -269.249,1310.97 C -290.051,1313.27 -340.061,1313.97 -366.739,1312.35 C -529.845,1303.04 -675.999,1237.3 -797.344,1124.47 C -857.484,1068.57 -885.816,1034.43 -913.779,984.197 C -921.132,975.003 -925.247,963.407 -929.827,953.817 C -932.905,947.671 -941.652,928.817 -944.691,921.776 C -946.917,916.619 -952.692,903.609 -955.589,897.228 C -964.281,876.188 -974.403,857.355 -980.431,835.509 C -980.94,833.58 -982.507,829.457 -983.912,826.345 C -985.317,823.235 -987.207,817.944 -988.111,814.588 C -997.289,783.076 -1007.61,754.648 -1010.6,724.571 C -1011.47,715.767 -1013.11,699.725 -1014.27,688.925 C -1017.63,657.436 -1018.39,577.499 -1015.64,545.568 C -1013.28,518.272 -1010.29,495.879 -1007.05,481.323 C -1006.02,476.693 -1004.14,468.172 -1002.87,462.385 C -1001.61,456.6 -999.631,448.393 -998.484,444.151 C -989.56,411.111 -989.424,410.669 -985.472,402.131 C -981.543,393.639 -975.789,387.527 -968.788,384.401 C -964.485,382.481 -963.861,382.549 -959.891,385.377 C -954.48,389.229 -949.696,399.777 -951.679,403.483 C -952.447,404.917 -953.075,407.153 -953.075,408.451 C -953.075,409.748 -955.365,415.628 -958.164,421.519 C -967.081,440.281 -971.692,453.848 -974.676,470.101 C -975.527,474.729 -976.648,479.171 -977.169,479.968 C -977.691,480.767 -979.128,486.763 -980.364,493.295 C -981.6,499.825 -983.231,507.377 -983.989,510.079 C -989.635,530.173 -993.236,592.667 -990.983,631.413 C -986.997,699.933 -986.575,703.735 -979.053,738.721 C -977.809,744.508 -975.924,753.66 -974.865,759.061 C -973.807,764.461 -970.011,780.241 -966.429,794.129 C -962.849,808.016 -959.316,821.903 -958.576,824.988 C -957.837,828.075 -956.692,831.861 -956.032,833.405 C -954.973,835.877 -951.529,847.004 -947.131,862.16 C -943.295,875.383 -940.317,882.989 -932.032,900.736 C -929.871,905.364 -927.72,910.099 -927.251,911.256 C -913.295,935.852 -895.177,968.927 -873.451,986.056 C -851.5,1002.65 -848.917,1004.06 -841.641,1003.41 C -825.419,1001.96 -824.073,988.823 -837.307,961.052 C -841.784,951.656 -846.468,941.013 -846.468,940.237 C -846.468,939.891 -849.996,934.397 -854.307,928.031 C -858.617,921.663 -862.517,915.441 -862.971,914.205 C -863.425,912.969 -865.38,909.432 -867.315,906.347 C -877.683,889.803 -897.709,843.975 -906.239,817.273 C -908.087,811.488 -910.217,805.491 -910.972,803.948 C -912.456,800.919 -917.685,781.524 -923.076,759.061 C -924.927,751.345 -927.015,742.824 -927.716,740.124 C -928.416,737.424 -930.32,727.324 -931.945,717.68 C -933.571,708.037 -935.585,696.675 -936.423,692.432 C -938.677,681.009 -939.601,612.184 -937.797,590.033 C -936.112,569.34 -932.577,537.675 -931.456,533.223 C -931.068,531.68 -929.395,521.58 -927.74,510.78 C -926.084,499.979 -924.164,490.541 -923.472,489.809 C -922.781,489.076 -922.215,487.383 -922.215,486.045 C -922.215,484.709 -920.915,483.203 -919.324,482.697 C -915.617,481.521 -907.02,487.153 -905.896,491.493 C -905.407,493.383 -907.105,500.424 -910.124,509.027 C -916.923,528.392 -917.841,532.74 -920.135,556.368 C -921.22,567.555 -922.808,582.073 -923.664,588.631 C -925.967,606.272 -926.265,662.639 -924.151,680.679 C -921.743,701.223 -919.869,713.72 -918.8,716.359 C -918.313,717.56 -917.028,723.872 -915.945,730.385 C -913.595,744.529 -910.647,757.656 -907.461,768.179 C -906.177,772.421 -904.291,779.681 -903.271,784.309 C -901.219,793.62 -893.823,816.041 -889.719,825.399 C -888.265,828.711 -886.091,834.076 -884.885,837.323 C -878.225,855.264 -872.547,868.191 -863.807,885.305 C -854.608,907.837 -839.941,924.361 -827.004,939.912 C -811.916,958.153 -791.379,970.087 -788.405,962.34 C -785.888,955.779 -787.691,941.557 -793.069,925.557 C -801.584,900.227 -805.015,891.339 -808.333,886.007 C -808.333,886.007 -811.669,877.847 -813.424,874.445 C -814.528,872.329 -816.807,866.332 -818.487,861.119 C -820.168,855.905 -823.012,847.537 -824.807,842.523 C -827.736,834.341 -831.637,821.269 -835.273,807.455 C -835.983,804.755 -837.208,797.811 -837.996,792.025 C -839.588,780.317 -841.908,767.385 -846.175,746.436 C -850.065,729.185 -849.336,711.901 -852.307,694.536 C -854.299,683.273 -854.207,613.648 -852.195,609.887 C -848.869,600.769 -853.323,588.361 -847.763,581.096 C -843.599,575.803 -840.311,574.348 -836.115,575.943 C -830.589,578.043 -828.929,589.888 -833.221,596.592 C -835.113,599.548 -836.457,607.144 -839.507,632.115 C -841.176,645.781 -840.356,688.952 -838.14,704.011 C -837.317,709.6 -836.083,718.908 -835.396,724.695 C -834.248,734.371 -828.693,761.053 -823.569,781.504 C -822.409,786.133 -820.751,792.761 -819.884,796.233 C -817.648,805.184 -814.412,814.089 -810.536,821.961 C -808.697,825.697 -807.192,829.353 -807.192,830.087 C -807.192,830.819 -805.035,835.193 -803.149,840.127 C -792.208,869.832 -756.744,931.279 -725.108,932.289 C -710.6,929.079 -707.712,911.389 -708.237,901.437 C -709.075,888.375 -711.347,871.372 -712.968,866.039 C -713.733,863.52 -715.728,855.147 -717.401,847.432 C -719.075,839.717 -720.989,832.143 -721.656,830.6 C -725.477,816.519 -728.896,801.216 -732.189,787.816 C -733.231,783.573 -736.028,772.843 -738.405,763.971 C -740.783,755.099 -743.656,741.211 -744.789,733.111 C -745.923,725.009 -747.547,713.964 -748.397,708.563 C -749.248,703.163 -750.043,680.439 -750.163,658.065 C -750.359,621.805 -750.116,616.868 -747.927,612.612 C -746.191,608.691 -739.561,602.511 -739.561,602.511 C -728.395,597.124 -727.344,602.148 -731.403,615.984 C -734.963,628.119 -735.853,636.416 -735.696,655.961 C -735.323,702.551 -732.08,727.547 -721.733,763.601 C -719.125,771.272 -718.892,780.135 -716.78,787.305 C -715.657,791.057 -713.393,798.863 -711.748,804.649 C -710.104,810.436 -707.865,817.159 -706.776,819.589 C -704.807,826.864 -701.517,833.335 -698.713,839.717 C -693.924,850.644 -687.781,860.175 -681.068,864.509 C -681.068,864.509 -676.149,868.183 -670.951,868.473 C -665.697,865.76 -663.58,861.877 -662.867,854.541 C -662.613,851.933 -659.701,824.252 -661.409,809.559 C -662.305,801.844 -663.517,786.379 -664.101,775.192 C -664.685,764.005 -665.669,747.593 -666.288,738.721 C -667.453,722.005 -667.409,669.519 -666.224,663.115 C -665.853,661.108 -664.889,650 -664.084,638.427 C -662.353,613.587 -659.491,591.471 -656.367,578.812 C -655.129,573.797 -653.609,567.169 -652.988,564.083 C -649.288,545.699 -644.433,529.744 -639.865,520.956 C -633.293,508.312 -625.652,506.057 -619.773,515.028 C -617.148,519.036 -617.656,520.687 -628.615,543.744 C -639.452,566.545 -642.069,574.744 -646.753,600.553 C -651.291,625.56 -652.844,661.295 -649.955,674.196 C -643.988,702.244 -646.848,735.199 -623.527,751.984 C -618.236,755.651 -617.327,755.849 -612.465,754.392 C -601.779,751.191 -598.777,736.631 -594.052,665.079 C -593.287,653.507 -591.745,639.62 -590.625,634.219 C -587.408,618.7 -585.816,609.565 -584.884,601.255 C -584.408,597.012 -582.755,589.121 -581.211,583.721 C -579.667,578.32 -577.823,571.692 -577.113,568.992 C -576.405,566.292 -574.495,560.611 -572.868,556.368 C -571.241,552.125 -569.283,546.54 -568.515,543.957 C -566.729,537.947 -557.185,520.041 -550.441,510.048 C -539.193,493.38 -525.515,483.96 -514.381,485.215 C -510.636,485.636 -506.899,487.167 -504.805,489.133 C -501.747,492.005 -501.467,493.136 -502.248,499.465 C -502.729,503.373 -504.107,508.149 -505.305,510.079 C -514.575,522.773 -527.385,533.156 -536.203,544.944 C -540.173,550.091 -548.055,569.52 -552.5,585.124 C -553.819,589.753 -555.481,595.467 -556.193,597.821 C -557.421,601.876 -559.613,611.784 -560.989,619.491 C -561.64,623.133 -564.481,670.671 -564.637,680.508 C -564.251,762.305 -548.963,826.973 -502.835,890.233 C -311.551,1109.8 -14.9413,936.819 80.7253,797.636 C 131.519,730.689 150.825,640.249 151.231,559.173 C 151.3,513.752 150.853,495.033 149.595,490.44 C 135.687,396.748 90.4347,313.267 36.5813,245.671 C -34.1,161.287 -115.599,120.88 -190.907,63.7987 C -200.435,57.588 -194.099,28.18 -196.231,7.90533 C -198.331,-21.6307 -209.745,-54.6093 -219.519,-77.1653 C -220.928,-80.364 -221.7,-83.3627 -221.235,-83.828 C -219.593,-85.4693 -200.445,-84.5253 -194.905,-82.5307 Z M -6.31067,577.409 C -2.032,589.368 -2.816,588.867 11.236,588.604 C 31.096,588.233 31.5427,588.299 33.1467,591.821 C 35.54,597.073 31.5213,602.604 20.1053,609.771 C 14.4773,613.303 9.996,617.081 10.1253,618.187 C 10.4653,621.088 15.3347,633.573 18.9453,640.803 C 20.6867,644.292 21.8453,648.831 21.5813,651.141 C 21.2,654.491 20.3653,655.345 17.1093,655.717 C 14.592,656.005 11.9893,655.16 10.096,653.439 C 5.89067,649.615 -10.3093,639.629 -16.512,637.037 C -21.436,634.98 -22.0053,635.043 -28.5493,638.359 C -32.3267,640.273 -38.264,644.303 -41.7427,647.313 C -49.5213,654.045 -55.1653,655.801 -57.7347,652.287 C -60.1733,648.952 -60.016,646.069 -56.96,638.128 C -54.4307,633.371 -53.7107,627.159 -51.4093,622.823 C -49.94,620.079 -50.6467,619.328 -60.328,613.353 C -66.1093,609.785 -71.664,607.392 -72.1787,606.865 C -75.9867,602.983 -75.5653,599.701 -73.9787,597.18 C -72.368,594.619 -58.2573,591.6 -47.436,591.501 L -40.2387,591.436 L -35.0107,579.161 C -28.9813,565.009 -25.7533,554.741 -21.7973,553.725 C -12.612,556.289 -8.60267,571.099 -6.31067,577.409 Z M -176.003,606.515 C -171.181,612.307 -161.615,631.411 -159.245,639.98 C -156.627,649.445 -158.163,649.028 -126.772,648.797 C -78.2053,648.441 -76.364,648.729 -78.284,656.377 C -91.168,669.968 -99.308,672.496 -114.951,683.551 C -119.58,686.827 -126.956,691.416 -131.343,693.749 C -140.453,698.596 -139.472,695.975 -131.491,718.256 C -128.971,725.037 -126.171,729.816 -124.467,733.587 C -121.184,739.06 -117.533,752.052 -123.299,753.68 C -127.803,754.713 -133.585,753.392 -140.768,747.589 C -147.76,741.205 -156.668,737.56 -164.179,732.096 C -171.048,728.117 -177.035,725.036 -183.724,720.919 L -192.121,725.583 C -200.364,730.025 -209.423,734.887 -216.648,739.237 C -230.629,747.673 -238.24,753.272 -242.411,751.747 C -245.727,750.533 -246.564,747.915 -245.489,742.191 C -245.004,739.604 -241.788,732.392 -238.344,726.164 C -228.361,708.117 -223.661,698.709 -223.661,696.771 C -223.661,694.565 -253.96,681.875 -261.312,677.401 C -274.919,669.119 -274.981,665.901 -274.811,663.016 C -274.619,659.749 -267.127,654.877 -250.313,653.941 C -241.171,652.779 -227.415,652.667 -220.856,652.3 C -214.299,651.935 -208.303,651.427 -207.531,651.171 C -206.759,650.916 -204.94,646.997 -203.488,642.463 C -202.035,637.928 -199.604,630.747 -198.085,626.504 C -196.567,622.26 -194.355,615.537 -193.169,611.563 C -191.661,606.505 -189.999,603.873 -187.635,602.795 C -182.317,600.372 -180.681,600.896 -176.003,606.515 Z M -368.245,645.823 C -361.605,654.009 -357.9,685.499 -354.185,685.396 L -332.453,684.795 C -313.553,684.272 -310.351,684.501 -307.877,686.559 C -304.883,689.051 -308.339,695.239 -308.339,695.239 C -313.091,702.431 -325.503,709.305 -334.697,712.115 C -335.733,712.141 -337.679,712.993 -339.021,714.012 C -341.317,715.756 -341.251,716.392 -337.887,724.839 C -335.921,729.773 -333.403,735.801 -332.291,738.232 C -329.756,744.776 -325.033,751.223 -325.321,757.797 C -327.033,762.835 -330.001,761.48 -336.86,758.565 C -344.684,752.332 -371.324,735.933 -373.643,735.924 C -374.739,735.92 -376.632,736.756 -377.851,737.781 C -379.068,738.808 -386.693,743.627 -394.793,748.488 C -402.895,753.351 -412.151,759.139 -415.363,761.351 C -418.575,763.563 -422.452,765.373 -423.979,765.373 C -429.984,765.373 -430.041,753.753 -424.101,740.632 C -421.704,735.339 -418.233,727.675 -416.387,723.604 C -412.553,715.152 -414.524,714.875 -414.524,714.875 C -414.728,714.079 -419.801,712.779 -426.096,710.215 C -442.316,702.715 -451.499,691.745 -443.424,688.676 C -434.416,685.752 -425.02,685.451 -417.88,685.419 L -399.051,685.419 L -390.504,667.601 C -377.404,640.292 -375.571,638.497 -368.245,645.823 Z "/>
		</g>
	</g>
</svg>