<?xml version="1.0" encoding="UTF-8" standalone="no"?>
<svg version="1.1" xmlns="http://www.w3.org/2000/svg" xmlns:xlink="http://www.w3.org/1999/xlink" width="110.573" height="135.409">
	<image id="dp_image001" transform="matrix(0.992332,0.123601,-0.123601,0.992332,17.127,2.22373)" fill="none" x="-1.99867" y="-1.992" width="95.9187" height="124.508" xlink:href="Page5C32_images/Page5C32_001.png"/>
	<path id="dp_path002" transform="matrix(0.992332,0.123601,-0.123601,0.992332,24.8418,3.18524)" fill="#15fe17" fill-rule="evenodd" stroke="none" stroke-width="0" d="M 13.9307,50.3 L 14.5227,50.1053 L 12.5413,49.7107 C 5.544,47.4827 1.58533,41.58 0.654667,32.024 C 0.213333,27.968 0,25.02 0,23.1893 C 0,9.816 6.36,2.29067 19.0813,0.590667 L 23.4133,0 L 49.964,0.326667 C 64.4053,0.458667 71.612,7.42667 71.612,21.24 C 71.612,37.5227 67.5413,46.9613 59.416,49.568 L 57.456,49.9573 L 59.008,50.3507 C 67.4107,52.4627 71.612,60.7227 71.612,75.176 C 71.612,85.1413 69.9107,93.6787 66.5293,100.767 C 62.1,109.949 55.4427,114.547 46.5653,114.547 L 25.2453,114.547 C 16.2333,114.547 9.51467,109.9 5.08667,100.585 C 1.70133,93.5133 0,84.8773 0,74.6653 C 0,61.0347 4.18533,53.0493 12.5587,50.696 Z M 20.3573,21.5987 C 11.5773,22.9093 7.192,26.4427 7.192,32.2213 C 7.192,37.864 11.5773,41.396 20.3573,42.8413 L 21.532,43.0387 L 53.7613,43.0387 L 56.5067,42.48 C 59.908,41.692 62.3253,39.812 63.7667,36.8213 C 64.4187,34.608 64.7453,32.9253 64.7453,31.7467 C 64.7453,25.8867 61.6053,22.5773 55.312,21.796 L 53.7453,21.5987 Z M 21.5813,57.108 C 16.988,57.108 13.44,58.7453 10.9387,62.0333 C 8.436,65.308 7.192,69.3027 7.192,74.028 C 7.192,81.6373 9.43467,87.0693 13.896,90.3627 C 16.3987,92.1907 18.952,93.1067 21.5813,93.1067 L 53.9093,93.1067 C 61.132,93.1067 64.7453,87.5267 64.7453,76.3867 C 64.7453,72.1987 63.9653,68.188 62.376,64.3893 C 60.2827,59.528 57.456,57.108 53.9093,57.108 Z "/>
	<path id="dp_path003" transform="matrix(0.992332,0.123601,-0.123601,0.992332,39.7977,31.1857)" fill="#15fe17" fill-rule="evenodd" stroke="black" stroke-width="1.33333" d="M 5.87467,0 C 9.11733,0 11.7507,2.62667 11.7507,5.87067 C 11.7507,9.10933 9.11733,11.736 5.87467,11.736 C 2.63067,11.736 0,9.10933 0,5.87067 C 0,2.62667 2.63067,0 5.87467,0 Z "/>
	<path id="dp_path004" transform="matrix(0.992332,0.123601,-0.123601,0.992332,43.5688,37.1128)" fill="#15fe17" fill-rule="evenodd" stroke="black" stroke-width="1.33333" d="M 1.56933,0 C 2.44,0 3.14,0.638667 3.14,1.43067 C 3.14,2.22 2.44,2.85867 1.56933,2.85867 C 0.702667,2.85867 0,2.22 0,1.43067 C 0,0.638667 0.702667,0 1.56933,0 Z "/>
	<path id="dp_path005" transform="matrix(0.992332,0.123601,-0.123601,0.992332,60.8546,33.8076)" fill="#15fe17" fill-rule="evenodd" stroke="black" stroke-width="1.33333" d="M 5.87467,0 C 9.11733,0 11.7507,2.62667 11.7507,5.87067 C 11.7507,9.10933 9.11733,11.736 5.87467,11.736 C 2.63067,11.736 0,9.10933 0,5.87067 C 0,2.62667 2.63067,0 5.87467,0 Z "/>
	<path id="dp_path006" transform="matrix(0.992332,0.123601,-0.123601,0.992332,64.6257,39.7347)" fill="#15fe17" fill-rule="evenodd" stroke="black" stroke-width="1.33333" d="M 1.56933,0 C 2.44,0 3.14,0.638667 3.14,1.43067 C 3.14,2.22 2.44,2.85867 1.56933,2.85867 C 0.702667,2.85867 0,2.22 0,1.43067 C 0,0.638667 0.702667,0 1.56933,0 Z "/>
	<path id="dp_path007" transform="matrix(0.123601,-0.992332,0.992332,0.123601,45.4979,46.3286)" fill="#15fe17" fill-rule="evenodd" stroke="white" stroke-width="1.33333" d="M 2.62,15.8 C 1.17467,15.8 0,12.2627 0,7.90133 C 0,3.536 1.17467,0 2.62,0 C 2.04133,0 1.57333,3.536 1.57333,7.90133 C 1.57333,12.2627 2.04133,15.8 2.62,15.8 Z "/>
	<path id="dp_path008" transform="matrix(0.992332,0.123601,-0.123601,0.992332,32.7454,60.5104)" fill="#15fe17" fill-rule="evenodd" stroke="black" stroke-width="1.33333" d="M 20.844,0 L 21.5853,0.012 L 22.3267,0.048 L 23.0667,0.106667 L 23.8027,0.190667 L 24.5347,0.297333 L 25.2627,0.426667 L 25.9853,0.58 L 26.7013,0.756 L 27.4093,0.956 L 28.1093,1.17733 L 28.8,1.42133 L 29.4813,1.688 L 30.1507,1.976 L 30.8093,2.284 L 31.4547,2.61467 L 32.0867,2.96533 L 32.704,3.336 L 33.3067,3.72533 L 33.8933,4.13467 L 34.464,4.56267 L 35.02,5.01067 L 35.5573,5.476 L 36.076,5.95867 L 36.5747,6.45733 L 37.0547,6.972 L 37.512,7.50133 L 37.9493,8.04667 L 38.3653,8.604 L 38.7573,9.17467 L 39.1267,9.75867 L 39.4733,10.3533 L 39.796,10.9587 L 40.0947,11.5747 L 40.368,12.2 L 40.616,12.8333 L 40.84,13.4733 L 41.0373,14.1213 L 41.2093,14.7747 L 41.356,15.4333 L 41.4747,16.0973 L 41.568,16.7627 L 41.6347,17.432 L 41.6747,18.1027 L 41.688,18.7747 L 41.4627,20.3987 L 41.0853,21.9893 L 40.5573,23.532 L 39.8867,25.0173 L 39.0787,26.4333 L 38.1427,27.7707 L 37.088,29.02 L 35.924,30.172 L 34.6613,31.22 L 33.3107,32.1573 L 31.8853,32.9787 L 30.3973,33.6787 L 28.8573,34.2533 L 27.2787,34.7013 L 25.676,35.02 L 24.0613,35.208 L 22.4453,35.2693 L 20.844,35.2027 L 19.2667,35.0093 L 17.7267,34.6947 L 16.2347,34.2653 L 14.8027,33.7213 L 13.4413,33.072 L 12.1587,32.3227 L 10.9627,31.4827 L 9.864,30.56 L 8.868,29.5613 L 7.98133,28.496 L 7.20667,27.3733 L 6.55333,26.2053 L 6.01867,25 L 5.60933,23.768 L 5.324,22.52 L 5.16267,21.264 L 5.12667,20.012 L 5.21067,18.7747 L 5.41467,17.5587 L 5.732,16.3747 L 6.16267,15.2307 L 6.696,14.136 L 7.33067,13.0987 L 8.05733,12.1253 L 8.86667,11.2213 L 9.75467,10.3933 L 10.7107,9.64667 L 11.7253,8.98533 L 12.7893,8.41467 L 13.896,7.93467 L 15.032,7.548 L 16.1893,7.25733 L 17.3587,7.06133 L 18.5307,6.96133 L 19.6947,6.95467 L 20.844,7.04 L 21.9667,7.21467 L 23.056,7.47467 L 24.1027,7.81733 L 25.1013,8.23867 L 26.0427,8.72933 L 26.9227,9.28933 L 27.7347,9.90933 L 28.4733,10.584 L 29.1347,11.3067 L 29.7147,12.0693 L 30.2107,12.8667 L 30.6213,13.6893 L 30.944,14.532 L 31.1813,15.3853 L 31.3293,16.2427 L 31.392,17.0987 L 31.3693,17.944 L 31.2667,18.7747 L 31.0813,19.5813 L 30.8213,20.3587 L 30.4907,21.1027 L 30.092,21.8067 L 29.6333,22.4653 L 29.1173,23.0773 L 28.5507,23.6347 L 27.94,24.1373 L 27.2907,24.5813 L 26.612,24.9667 L 25.908,25.2893 L 25.1867,25.548 L 24.452,25.7453 L 23.7147,25.88 L 22.9787,25.9533 L 22.2507,25.964 L 21.5373,25.9173 L 20.844,25.8147 L 20.1747,25.6587 L 19.536,25.4507 L 18.932,25.1973 L 18.368,24.9 L 17.8453,24.564 L 17.3693,24.1947 L 16.9413,23.7933 L 16.5627,23.368 L 16.2373,22.9227 L 15.964,22.4613 L 15.7453,21.9893 L 15.5773,21.512 L 15.4653,21.0333 L 15.4013,20.5573 L 15.3907,20.0907 L 15.4267,19.6347 L 15.508,19.1947 L 15.6333,18.7747 L 15.796,18.376 L 15.9973,18.004 L 16.2293,17.66 L 16.4907,17.3467 L 16.7773,17.0667 L 17.0827,16.8187 L 17.4053,16.6053 L 17.7387,16.428 L 18.08,16.2853 L 18.424,16.1773 L 18.768,16.104 L 19.1067,16.064 L 19.436,16.056 L 19.7547,16.0787 L 20.056,16.1293 L 20.3413,16.2053 L 20.604,16.3067 L 20.844,16.428 L 21.0573,16.5667 L 21.2453,16.7187 L 21.4053,16.884 L 21.536,17.0587 L 21.6387,17.2387 L 21.712,17.42 L 21.756,17.5987 L 21.7747,17.7747 L 21.764,17.944 L 21.7307,18.104 L 21.6733,18.2507 L 21.5947,18.3827 L 21.5,18.4987 L 21.3867,18.596 L 21.2627,18.6733 L 21.128,18.728 L 20.988,18.7627 L 20.844,18.7747 L 20.8307,18.644 L 20.7933,18.516 L 20.7307,18.396 L 20.6453,18.284 L 20.5373,18.1827 L 20.4093,18.096 L 20.2627,18.0267 L 20.0987,17.9747 L 19.9227,17.944 L 19.7347,17.936 L 19.5387,17.9507 L 19.3387,17.992 L 19.1387,18.0573 L 18.9387,18.1493 L 18.7467,18.268 L 18.5627,18.412 L 18.392,18.5813 L 18.2387,18.7747 L 18.1027,18.9893 L 17.992,19.2267 L 17.9067,19.4827 L 17.852,19.7547 L 17.8253,20.0413 L 17.8347,20.3387 L 17.8787,20.644 L 17.96,20.952 L 18.08,21.2627 L 18.2373,21.5707 L 18.436,21.872 L 18.672,22.1613 L 18.9467,22.4373 L 19.2587,22.6947 L 19.6067,22.9307 L 19.9893,23.14 L 20.4013,23.3187 L 20.844,23.468 L 21.3107,23.58 L 21.7987,23.6533 L 22.304,23.6867 L 22.824,23.6747 L 23.352,23.6187 L 23.884,23.516 L 24.4133,23.3667 L 24.9373,23.1693 L 25.4493,22.9227 L 25.944,22.6293 L 26.416,22.2893 L 26.86,21.904 L 27.272,21.4733 L 27.644,21.004 L 27.9747,20.4947 L 28.256,19.952 L 28.4867,19.376 L 28.66,18.7747 L 28.7747,18.1493 L 28.8267,17.5067 L 28.8133,16.8507 L 28.7333,16.188 L 28.5827,15.5227 L 28.3653,14.8627 L 28.076,14.212 L 27.7187,13.5773 L 27.2907,12.9667 L 26.7987,12.3827 L 26.24,11.832 L 25.62,11.3213 L 24.9427,10.856 L 24.2093,10.4427 L 23.428,10.084 L 22.6027,9.78533 L 21.7387,9.552 L 20.844,9.38667 L 19.9227,9.29333 L 18.9827,9.272 L 18.0333,9.328 L 17.08,9.46267 L 16.1333,9.676 L 15.1987,9.96667 L 14.2853,10.3373 L 13.4,10.784 L 12.552,11.3067 L 11.7507,11.9027 L 11.0013,12.5667 L 10.3133,13.2987 L 9.692,14.0907 L 9.14667,14.9387 L 8.67867,15.8387 L 8.29867,16.7813 L 8.00933,17.7627 L 7.816,18.7747 L 7.72133,19.808 L 7.728,20.8573 L 7.84133,21.912 L 8.05733,22.9653 L 8.38133,24.0093 L 8.80933,25.032 L 9.34133,26.028 L 9.97733,26.9867 L 10.7107,27.9013 L 11.5387,28.7613 L 12.4573,29.56 L 13.4613,30.2907 L 14.5427,30.9453 L 15.6947,31.516 L 16.9093,31.9973 L 18.1787,32.384 L 19.4933,32.672 L 20.844,32.856 L 22.2187,32.932 L 23.608,32.8973 L 25.0013,32.7533 L 26.388,32.496 L 27.756,32.1267 L 29.0947,31.6453 L 30.392,31.056 L 31.636,30.36 L 32.8187,29.5613 L 33.928,28.664 L 34.9533,27.6733 L 35.8867,26.5973 L 36.7173,25.4413 L 37.4387,24.2147 L 38.0413,22.9253 L 38.52,21.5813 L 38.868,20.1947 L 39.0827,18.7747 L 39.156,17.3307 L 39.0893,15.876 L 38.88,14.4213 L 38.5253,12.9773 L 38.0293,11.556 L 37.3907,10.1693 L 36.6133,8.828 L 35.7013,7.544 L 34.6613,6.328 L 33.4973,5.19067 L 32.2173,4.14133 L 30.832,3.192 L 29.3467,2.34933 L 27.7747,1.62133 L 26.1253,1.016 L 24.412,0.541333 L 22.648,0.201333 Z M 20.844,37.5493 L 20.1027,37.5373 L 19.3613,37.5013 L 18.6213,37.4427 L 17.8853,37.3587 L 17.1533,37.252 L 16.4253,37.1227 L 15.7027,36.9693 L 14.9867,36.7933 L 14.2787,36.5933 L 13.5787,36.372 L 12.888,36.128 L 12.2067,35.8613 L 11.5373,35.5733 L 10.8787,35.2653 L 10.2333,34.9347 L 9.60133,34.584 L 8.984,34.2133 L 8.38133,33.824 L 7.79467,33.4147 L 7.224,32.9867 L 6.668,32.5387 L 6.13067,32.0733 L 5.612,31.5907 L 5.11333,31.092 L 4.63333,30.5773 L 4.176,30.048 L 3.73867,29.5027 L 3.32267,28.9453 L 2.93067,28.3747 L 2.56133,27.7907 L 2.21467,27.196 L 1.892,26.5907 L 1.59333,25.9747 L 1.32,25.3493 L 1.072,24.716 L 0.848,24.076 L 0.650667,23.428 L 0.478667,22.7747 L 0.332,22.116 L 0.213333,21.452 L 0.12,20.7867 L 0.0533333,20.1173 L 0.0133333,19.4467 L 0,18.7747 L 0.224,17.1493 L 0.601333,15.5587 L 1.12933,14.016 L 1.8,12.5307 L 2.608,11.1147 L 3.544,9.77867 L 4.59867,8.528 L 5.76267,7.376 L 7.02533,6.328 L 8.376,5.39067 L 9.80133,4.56933 L 11.2907,3.86933 L 12.8293,3.29467 L 14.408,2.84667 L 16.0107,2.528 L 17.6253,2.34 L 19.2413,2.27867 L 20.844,2.34667 L 22.42,2.53867 L 23.96,2.85333 L 25.452,3.28267 L 26.884,3.82667 L 28.2453,4.476 L 29.5293,5.22533 L 30.724,6.06533 L 31.8227,6.988 L 32.8187,7.98667 L 33.7053,9.052 L 34.48,10.1747 L 35.1333,11.3427 L 35.668,12.548 L 36.0773,13.78 L 36.3627,15.028 L 36.524,16.284 L 36.56,17.536 L 36.4773,18.7747 L 36.272,19.9893 L 35.9547,21.1733 L 35.524,22.3173 L 34.9907,23.412 L 34.356,24.4493 L 33.6293,25.424 L 32.82,26.3267 L 31.932,27.1547 L 30.976,27.9013 L 29.9613,28.5627 L 28.8973,29.1333 L 27.792,29.6133 L 26.6547,30 L 25.4973,30.2907 L 24.328,30.4867 L 23.156,30.5867 L 21.992,30.5933 L 20.844,30.5093 L 19.72,30.3333 L 18.6307,30.0733 L 17.584,29.7307 L 16.5853,29.3093 L 15.644,28.8187 L 14.764,28.2587 L 13.952,27.6387 L 13.2133,26.964 L 12.552,26.2413 L 11.972,25.4787 L 11.476,24.6813 L 11.0653,23.8587 L 10.7427,23.016 L 10.5053,22.1627 L 10.3573,21.3053 L 10.2947,20.4493 L 10.3173,19.604 L 10.4213,18.7747 L 10.6053,17.9667 L 10.8653,17.1893 L 11.196,16.4453 L 11.5947,15.7413 L 12.0533,15.0827 L 12.5693,14.472 L 13.136,13.9133 L 13.7467,13.4107 L 14.396,12.9667 L 15.0747,12.5813 L 15.7787,12.2587 L 16.5013,12 L 17.2347,11.8027 L 17.972,11.668 L 18.708,11.5947 L 19.436,11.584 L 20.1493,11.6307 L 20.844,11.7347 L 21.512,11.8893 L 22.1507,12.0973 L 22.7547,12.3507 L 23.3187,12.648 L 23.8413,12.984 L 24.3173,13.3533 L 24.7453,13.7547 L 25.124,14.18 L 25.4493,14.6253 L 25.7227,15.0867 L 25.9413,15.5587 L 26.1093,16.036 L 26.2213,16.5147 L 26.2853,16.9907 L 26.296,17.4573 L 26.26,17.9133 L 26.1787,18.3533 L 26.0547,18.7747 L 25.8907,19.172 L 25.6893,19.544 L 25.4573,19.888 L 25.196,20.2013 L 24.9093,20.4813 L 24.604,20.7307 L 24.2813,20.9427 L 23.948,21.12 L 23.6067,21.2627 L 23.2627,21.3707 L 22.9187,21.444 L 22.5813,21.484 L 22.2507,21.492 L 21.932,21.4693 L 21.6307,21.4187 L 21.3453,21.3427 L 21.0827,21.2413 L 20.844,21.1213 L 20.6293,20.9813 L 20.4413,20.8293 L 20.2813,20.664 L 20.1507,20.4893 L 20.048,20.3093 L 19.9747,20.128 L 19.9307,19.9493 L 19.912,19.7733 L 19.9227,19.604 L 19.956,19.444 L 20.0133,19.2973 L 20.092,19.1653 L 20.1867,19.0493 L 20.3,18.952 L 20.424,18.8747 L 20.5587,18.82 L 20.6987,18.7853 L 20.844,18.7747 L 20.856,18.904 L 20.8933,19.032 L 20.956,19.152 L 21.0413,19.264 L 21.1493,19.3653 L 21.2773,19.452 L 21.424,19.5213 L 21.588,19.5733 L 21.764,19.604 L 21.952,19.612 L 22.148,19.5973 L 22.348,19.556 L 22.548,19.4907 L 22.748,19.3987 L 22.94,19.28 L 23.124,19.136 L 23.2947,18.9667 L 23.4493,18.7747 L 23.584,18.5587 L 23.6947,18.3213 L 23.78,18.0653 L 23.8347,17.7933 L 23.8613,17.5067 L 23.852,17.2093 L 23.808,16.904 L 23.7267,16.596 L 23.6067,16.2853 L 23.4493,15.9773 L 23.2507,15.676 L 23.0147,15.3867 L 22.74,15.1107 L 22.428,14.8533 L 22.08,14.6173 L 21.6973,14.408 L 21.2853,14.2293 L 20.844,14.0813 L 20.376,13.968 L 19.888,13.8947 L 19.3827,13.8613 L 18.8627,13.8733 L 18.3347,13.9293 L 17.804,14.032 L 17.2733,14.1813 L 16.7493,14.3787 L 16.2373,14.6253 L 15.7427,14.9187 L 15.2707,15.2587 L 14.8267,15.6453 L 14.4147,16.0747 L 14.0427,16.544 L 13.712,17.0533 L 13.4307,17.596 L 13.2,18.172 L 13.028,18.7747 L 12.912,19.3987 L 12.86,20.0413 L 12.8733,20.6973 L 12.9533,21.36 L 13.104,22.0253 L 13.3213,22.6853 L 13.6107,23.336 L 13.968,23.9707 L 14.396,24.5813 L 14.888,25.1653 L 15.4467,25.716 L 16.0667,26.2267 L 16.744,26.692 L 17.4773,27.1053 L 18.2587,27.464 L 19.084,27.7627 L 19.948,27.996 L 20.844,28.1627 L 21.764,28.2547 L 22.704,28.276 L 23.6533,28.22 L 24.6067,28.0853 L 25.5533,27.872 L 26.4893,27.5813 L 27.4013,27.2107 L 28.2867,26.764 L 29.1347,26.2413 L 29.936,25.6453 L 30.6853,24.9813 L 31.3733,24.2507 L 31.9947,23.4573 L 32.54,22.6093 L 33.008,21.7093 L 33.388,20.7667 L 33.6773,19.7853 L 33.872,18.7747 L 33.9653,17.74 L 33.9587,16.6907 L 33.8453,15.636 L 33.6293,14.5827 L 33.3053,13.5387 L 32.8773,12.516 L 32.3453,11.52 L 31.7093,10.5613 L 30.976,9.64667 L 30.148,8.78667 L 29.2293,7.988 L 28.2253,7.25733 L 27.144,6.60267 L 25.992,6.032 L 24.7773,5.55067 L 23.508,5.164 L 22.1933,4.876 L 20.844,4.69333 L 19.468,4.616 L 18.0787,4.65067 L 16.6853,4.79467 L 15.2987,5.052 L 13.9307,5.42133 L 12.5933,5.90267 L 11.2947,6.492 L 10.0507,7.188 L 8.868,7.98667 L 7.75867,8.884 L 6.73333,9.87467 L 5.8,10.952 L 4.96933,12.1067 L 4.248,13.3333 L 3.64533,14.6227 L 3.16667,15.9667 L 2.81867,17.3533 L 2.60533,18.7747 L 2.53067,20.2173 L 2.59733,21.672 L 2.80667,23.1267 L 3.16133,24.5707 L 3.65733,25.992 L 4.296,27.38 L 5.07333,28.72 L 5.98533,30.004 L 7.02533,31.22 L 8.18933,32.3573 L 9.46933,33.4067 L 10.856,34.356 L 12.34,35.1987 L 13.912,35.9267 L 15.5613,36.532 L 17.2747,37.0067 L 19.0387,37.3467 Z "/>
	<path id="dp_path009" transform="matrix(0.992332,0.123601,-0.123601,0.992332,10.6587,59.5568)" fill="#15fe17" fill-rule="evenodd" stroke="black" stroke-width="1.33333" d="M 2.61067,20.0093 L 0,20.0093 L 0,4.56933 C 0,2.04533 2.04533,0 4.56933,0 L 10.4427,0 L 10.4427,5.00267 L 4.56933,5.00267 C 3.488,5.00267 2.61067,5.88 2.61067,6.96133 Z "/>
	<path id="dp_path010" transform="matrix(-0.998568,-0.0534963,0.0536156,-0.998562,94.2176,72.7233)" fill="#15fe17" fill-rule="evenodd" stroke="black" stroke-width="1.33333" d="M 2.61067,17.5813 L 0,17.5813 L 0,4.56933 C 0,2.04533 2.04533,0 4.56933,0 L 10.4427,0 L 10.4427,4.396 L 4.56933,4.396 C 3.488,4.396 2.61067,5.27333 2.61067,6.35467 Z "/>
</svg>