<?xml version="1.0" encoding="UTF-8" standalone="no"?>
<svg version="1.1" xmlns="http://www.w3.org/2000/svg" xmlns:xlink="http://www.w3.org/1999/xlink" width="140.411" height="94.7667">
	<path id="dp_path001" transform="matrix(1,0,0,1,0.000455504,0.000353774)" fill="#2bbffe" fill-rule="evenodd" stroke="black" stroke-width="1.2" d="M 70.2053,6.57733 C 83.9013,0.656 83.9013,0.656 97.072,2.60267 C 109.209,5.76267 109.209,5.76267 111.573,14.6693 C 128.579,15.2 128.579,15.2 135.067,21.1147 C 139.061,27.5307 139.061,27.5307 128.709,34.204 C 139.061,40.8773 139.061,40.8773 135.067,47.2933 C 128.579,53.208 128.579,53.208 111.573,53.7387 C 109.209,62.6453 109.209,62.6453 97.072,65.8053 C 83.9013,67.752 83.9013,67.752 70.2053,61.8307 C 56.5093,67.752 56.5093,67.752 43.3387,65.8053 C 31.2013,62.6453 31.2013,62.6453 28.8373,53.7387 C 11.832,53.208 11.832,53.208 5.344,47.2933 C 1.34933,40.8773 1.34933,40.8773 11.7013,34.204 C 1.34933,27.5307 1.34933,27.5307 5.344,21.1147 C 11.832,15.2 11.832,15.2 28.8373,14.6693 C 31.2013,5.76267 31.2013,5.76267 43.3387,2.60267 C 56.5093,0.656 56.5093,0.656 70.2053,6.57733 Z M 66.6947,74.256 C 66.6947,72.076 64.0747,70.3093 60.844,70.3093 C 57.6133,70.3093 54.9933,72.076 54.9933,74.256 C 54.9933,76.436 57.6133,78.2027 60.844,78.2027 C 64.0747,78.2027 66.6947,76.436 66.6947,74.256 Z M 56.164,83.612 C 56.164,81.868 54.0693,80.4547 51.484,80.4547 C 48.8987,80.4547 46.804,81.868 46.804,83.612 C 46.804,85.356 48.8987,86.7693 51.484,86.7693 C 54.0693,86.7693 56.164,85.356 56.164,83.612 Z M 45.6333,91.7973 C 45.6333,90.4893 44.0613,89.4293 42.1227,89.4293 C 40.184,89.4293 38.612,90.4893 38.612,91.7973 C 38.612,93.1053 40.184,94.1653 42.1227,94.1653 C 44.0613,94.1653 45.6333,93.1053 45.6333,91.7973 Z "/>
	<g id="dp_dp002" transform="matrix(1,0,0,1,36.944,16.3628)">
		<image id="dp_image003" fill="none" x="-0.989333" y="-1.352" width="45.4947" height="45.9027" xlink:href="PageDBCF_images/PageDBCF_001.png"/>
		<path id="dp_path004" fill="#fea0e4" fill-rule="evenodd" stroke="black" stroke-width="1.33333" d="M 17.1627,0.313333 L 24.376,0.313333 L 27.5187,9.00533 L 36.68,7.35867 L 40.2867,13.5547 L 34.2693,20.6013 L 40.2867,27.648 L 36.68,33.844 L 27.5187,32.1973 L 24.376,40.8893 L 17.1627,40.8893 L 14.02,32.1973 L 4.85867,33.844 L 1.252,27.648 L 7.26933,20.6013 L 1.252,13.5547 L 4.85867,7.35867 L 14.02,9.00533 Z M 27.54,20.6013 C 27.54,24.3107 24.5093,27.3173 20.7693,27.3173 C 17.0293,27.3173 13.9987,24.3107 13.9987,20.6013 C 13.9987,16.892 17.0293,13.8853 20.7693,13.8853 C 24.5093,13.8853 27.54,16.892 27.54,20.6013 Z "/>
	</g>
	<g id="dp_dp005" transform="matrix(0.824423,0.565975,-0.565975,0.824423,89.2561,16.3646)">
		<image id="dp_image006" fill="none" x="-0.98" y="-1.432" width="30.38" height="35.9947" xlink:href="PageDBCF_images/PageDBCF_002.png"/>
		<path id="dp_path007" fill="#15fe17" fill-rule="evenodd" stroke="black" stroke-width="1.33333" d="M 10.932,0.236 L 15.5267,0.236 L 17.528,6.804 L 23.364,5.56 L 25.6613,10.2413 L 21.828,15.5653 L 25.6613,20.8893 L 23.364,25.5707 L 17.528,24.3267 L 15.5267,30.8947 L 10.932,30.8947 L 8.93067,24.3267 L 3.09467,25.5707 L 0.797333,20.8893 L 4.63067,15.5653 L 0.797333,10.2413 L 3.09467,5.56 L 8.93067,6.804 Z M 17.5427,15.5653 C 17.5427,18.368 15.612,20.64 13.2293,20.64 C 10.8467,20.64 8.916,18.368 8.916,15.5653 C 8.916,12.7627 10.8467,10.4907 13.2293,10.4907 C 15.612,10.4907 17.5427,12.7627 17.5427,15.5653 Z "/>
	</g>
	<g id="dp_dp008" transform="matrix(0.680465,0.73278,-0.73278,0.680465,91.1556,5.21964)">
		<image id="dp_image009" fill="none" x="-0.328" y="-0.54" width="18.0907" height="19.6667" xlink:href="PageDBCF_images/PageDBCF_003.png"/>
		<path id="dp_path010" fill="#fef800" fill-rule="evenodd" stroke="black" stroke-width="1.33333" d="M 6.41733,0.126667 L 9.11333,0.126667 L 10.2893,3.632 L 13.7133,2.968 L 15.0627,5.468 L 12.8133,8.30933 L 15.0627,11.1507 L 13.7133,13.6507 L 10.2893,12.9867 L 9.11333,16.492 L 6.41733,16.492 L 5.24133,12.9867 L 1.81733,13.6507 L 0.468,11.1507 L 2.71733,8.30933 L 0.468,5.468 L 1.81733,2.968 L 5.24133,3.632 Z M 10.2973,8.30933 C 10.2973,9.80533 9.164,11.0187 7.76533,11.0187 C 6.36667,11.0187 5.23333,9.80533 5.23333,8.30933 C 5.23333,6.81333 6.36667,5.6 7.76533,5.6 C 9.164,5.6 10.2973,6.81333 10.2973,8.30933 Z "/>
	</g>
</svg>