<?xml version="1.0" encoding="UTF-8" standalone="no"?>
<svg version="1.1" xmlns="http://www.w3.org/2000/svg" xmlns:xlink="http://www.w3.org/1999/xlink" width="97.7947" height="121.351">
	<g id="dp_dp001" transform="matrix(-0.976672,0.214735,0.214735,0.976672,68.2818,2.43462)">
		<image id="dp_image002" fill="none" x="-0.996" y="-0.994667" width="70.6907" height="107.428" xlink:href="PageD9BF_images/PageD9BF_001.png"/>
		<path id="dp_path003" fill="#fea0e4" fill-rule="evenodd" stroke="none" stroke-width="0" d="M 12.2,43.6813 L 12.72,43.512 L 10.9827,43.168 C 4.856,41.2333 1.39067,36.1053 0.573333,27.808 C 0.186667,24.284 0,21.724 0,20.1347 C 0,8.524 5.572,1.98933 16.712,0.512 L 20.512,0 L 43.7627,0.284 C 56.4067,0.401333 62.724,6.45067 62.724,18.4413 C 62.724,32.584 59.156,40.776 52.0413,43.0413 L 50.3227,43.3827 L 51.6853,43.724 C 59.04,45.552 62.724,52.7307 62.724,65.2827 C 62.724,73.932 61.2333,81.352 58.268,87.5 C 54.3907,95.4693 48.5613,99.4693 40.7867,99.4693 L 22.1147,99.4693 C 14.22,99.4693 8.332,95.4293 4.45333,87.3427 C 1.49067,81.2067 0,73.7053 0,64.8373 C 0,53.0013 3.668,46.064 10.9973,44.024 Z M 17.8293,18.76 C 10.14,19.8933 6.3,22.9627 6.3,27.9747 C 6.3,32.8813 10.14,35.9493 17.8293,37.2 L 18.8613,37.3693 L 47.084,37.3693 L 49.492,36.8893 C 52.468,36.208 54.5867,34.5707 55.8467,31.9707 C 56.42,30.0533 56.7067,28.588 56.7067,27.5667 C 56.7067,22.4813 53.9573,19.612 48.444,18.9253 L 47.0707,18.76 Z M 18.9013,49.5893 C 14.8813,49.5893 11.7733,51.0147 9.584,53.8707 C 7.388,56.7093 6.3,60.1773 6.3,64.2827 C 6.3,70.892 8.264,75.6093 12.172,78.464 C 14.364,80.0573 16.5947,80.8507 18.9013,80.8507 L 47.212,80.8507 C 53.5467,80.8507 56.7067,76.004 56.7067,66.3293 C 56.7067,62.6907 56.02,59.2107 54.632,55.9173 C 52.8,51.6947 50.3227,49.5893 47.212,49.5893 Z "/>
	</g>
	<g id="dp_dp004" transform="matrix(-0.976672,0.214735,0.214735,0.976672,57.4053,27.9634)">
		<image id="dp_image005" fill="none" x="-0.669333" y="-0.669333" width="14.352" height="14.228" xlink:href="PageD9BF_images/PageD9BF_002.png"/>
		<path id="dp_path006" fill="#fea0e4" fill-rule="evenodd" stroke="#feda07" stroke-width="1.33333" d="M 5.06667,0 C 7.86667,0 10.1413,2.25067 10.1413,5.02267 C 10.1413,7.796 7.86667,10.0427 5.06667,10.0427 C 2.272,10.0427 0,7.796 0,5.02267 C 0,2.25067 2.272,0 5.06667,0 Z "/>
	</g>
	<g id="dp_dp007" transform="matrix(-0.976672,0.214735,0.214735,0.976672,54.5868,33.3969)">
		<image id="dp_image008" fill="none" x="-0.670667" y="-0.669333" width="5.912" height="5.50267" xlink:href="PageD9BF_images/PageD9BF_003.png"/>
		<path id="dp_path009" fill="black" fill-rule="evenodd" stroke="black" stroke-width="1.33333" d="M 1.304,0 C 2.01867,0 2.59867,0.522667 2.59867,1.16667 C 2.59867,1.812 2.01867,2.32933 1.304,2.32933 C 0.582667,2.32933 0,1.812 0,1.16667 C 0,0.522667 0.582667,0 1.304,0 Z "/>
	</g>
	<g id="dp_dp010" transform="matrix(-0.976672,0.214735,0.214735,0.976672,39.2521,31.9538)">
		<image id="dp_image011" fill="none" x="-0.669333" y="-0.669333" width="14.352" height="14.228" xlink:href="PageD9BF_images/PageD9BF_004.png"/>
		<path id="dp_path012" fill="#fea0e4" fill-rule="evenodd" stroke="#feda07" stroke-width="1.33333" d="M 5.06667,0 C 7.86667,0 10.1413,2.25067 10.1413,5.02267 C 10.1413,7.796 7.86667,10.0427 5.06667,10.0427 C 2.272,10.0427 0,7.796 0,5.02267 C 0,2.25067 2.272,0 5.06667,0 Z "/>
	</g>
	<g id="dp_dp013" transform="matrix(-0.976672,0.214735,0.214735,0.976672,36.4349,37.387)">
		<image id="dp_image014" fill="none" x="-0.670667" y="-0.669333" width="5.912" height="5.50267" xlink:href="PageD9BF_images/PageD9BF_005.png"/>
		<path id="dp_path015" fill="black" fill-rule="evenodd" stroke="black" stroke-width="1.33333" d="M 1.304,0 C 2.01867,0 2.59867,0.522667 2.59867,1.16667 C 2.59867,1.812 2.01867,2.32933 1.304,2.32933 C 0.582667,2.32933 0,1.812 0,1.16667 C 0,0.522667 0.582667,0 1.304,0 Z "/>
	</g>
	<g id="dp_dp016" transform="matrix(-0.214735,-0.976672,-0.976672,0.214735,53.15,41.4792)">
		<image id="dp_image017" fill="none" x="-0.668" y="-1.128" width="4.80667" height="16.8747" xlink:href="PageD9BF_images/PageD9BF_006.png"/>
		<path id="dp_path018" fill="black" fill-rule="evenodd" stroke="#feda07" stroke-width="1.33333" d="M 1.44133,12.724 C 0.644,12.724 0,9.87733 0,6.36133 C 0,2.84933 0.644,0 1.44133,0 C 1.12133,0 0.866667,2.84933 0.866667,6.36133 C 0.866667,9.87733 1.12133,12.724 1.44133,12.724 Z "/>
	</g>
	<g id="dp_dp019" transform="matrix(-0.976672,0.214735,0.214735,0.976672,65.8806,52.7467)">
		<image id="dp_image020" fill="none" x="-0.668" y="-0.666667" width="42.6627" height="37.7667" xlink:href="PageD9BF_images/PageD9BF_007.png"/>
		<path id="dp_path021" fill="#fea0e4" fill-rule="evenodd" stroke="#feda07" stroke-width="1.33333" d="M 18.1827,0 L 18.8293,0.0106667 L 19.476,0.0413333 L 20.1213,0.092 L 20.764,0.164 L 21.4027,0.256 L 22.0373,0.369333 L 22.668,0.501333 L 23.292,0.653333 L 23.9093,0.826667 L 24.52,1.01733 L 25.1227,1.22933 L 25.7173,1.45867 L 26.3013,1.708 L 26.876,1.97467 L 27.4387,2.26 L 27.9893,2.56267 L 28.528,2.88267 L 29.0547,3.22 L 29.5667,3.57333 L 30.064,3.944 L 30.548,4.33067 L 31.0173,4.73333 L 31.4693,5.15067 L 31.9053,5.58133 L 32.3227,6.02667 L 32.7227,6.484 L 33.104,6.95467 L 33.4667,7.43733 L 33.8093,7.93067 L 34.132,8.43467 L 34.4333,8.94933 L 34.7147,9.472 L 34.9747,10.0053 L 35.2133,10.5453 L 35.4307,11.092 L 35.6253,11.6467 L 35.7987,12.2053 L 35.948,12.7707 L 36.0747,13.34 L 36.18,13.9133 L 36.2613,14.4893 L 36.3187,15.068 L 36.3533,15.648 L 36.3653,16.228 L 36.1693,17.632 L 35.84,19.0067 L 35.38,20.34 L 34.7933,21.624 L 34.088,22.8467 L 33.2733,24.004 L 32.352,25.0827 L 31.336,26.0787 L 30.236,26.9853 L 29.0573,27.796 L 27.8147,28.5053 L 26.516,29.1107 L 25.1733,29.6067 L 23.796,29.9947 L 22.3973,30.2693 L 20.988,30.4333 L 19.58,30.4853 L 18.1827,30.428 L 16.8067,30.26 L 15.4627,29.9893 L 14.1627,29.616 L 12.9133,29.148 L 11.7253,28.5853 L 10.6067,27.94 L 9.564,27.2133 L 8.604,26.4133 L 7.736,25.5507 L 6.96267,24.6293 L 6.28667,23.6613 L 5.716,22.6507 L 5.25067,21.6093 L 4.892,20.544 L 4.644,19.4653 L 4.504,18.38 L 4.472,17.2973 L 4.54533,16.228 L 4.72267,15.176 L 5.00133,14.1533 L 5.37467,13.164 L 5.84133,12.2187 L 6.39467,11.3213 L 7.028,10.48 L 7.73467,9.69867 L 8.50933,8.984 L 9.34267,8.33733 L 10.228,7.76667 L 11.1573,7.272 L 12.1213,6.85867 L 13.112,6.52533 L 14.1227,6.27333 L 15.1427,6.104 L 16.1653,6.01733 L 17.18,6.012 L 18.1827,6.08533 L 19.1613,6.236 L 20.112,6.46 L 21.0253,6.75733 L 21.896,7.12 L 22.7187,7.54667 L 23.4853,8.02933 L 24.1933,8.56533 L 24.8373,9.148 L 25.4147,9.77333 L 25.92,10.432 L 26.3533,11.1213 L 26.712,11.832 L 26.9933,12.56 L 27.1987,13.2973 L 27.3293,14.04 L 27.384,14.7787 L 27.364,15.5107 L 27.2747,16.228 L 27.1133,16.9253 L 26.8867,17.5973 L 26.5973,18.24 L 26.2507,18.848 L 25.8493,19.4187 L 25.3987,19.9467 L 24.9053,20.4293 L 24.372,20.8627 L 23.8067,21.248 L 23.2133,21.58 L 22.6,21.8587 L 21.9707,22.0827 L 21.3307,22.2533 L 20.6867,22.3693 L 20.0453,22.432 L 19.4093,22.4427 L 18.7867,22.4027 L 18.1827,22.3133 L 17.5987,22.1773 L 17.0413,21.9987 L 16.5147,21.78 L 16.0227,21.5227 L 15.568,21.232 L 15.152,20.912 L 14.7787,20.5653 L 14.4493,20.1987 L 14.164,19.8133 L 13.9253,19.4147 L 13.7347,19.0067 L 13.5893,18.5947 L 13.4893,18.18 L 13.436,17.7693 L 13.4253,17.3653 L 13.456,16.9707 L 13.528,16.5907 L 13.6373,16.228 L 13.7787,15.884 L 13.9533,15.5613 L 14.1573,15.2653 L 14.3853,14.9933 L 14.6347,14.7507 L 14.9013,14.5373 L 15.1827,14.3533 L 15.4733,14.1987 L 15.7707,14.076 L 16.072,13.9827 L 16.3707,13.92 L 16.6667,13.884 L 16.9547,13.8787 L 17.232,13.8987 L 17.496,13.9413 L 17.744,14.008 L 17.9733,14.0947 L 18.1827,14.2 L 18.3693,14.3187 L 18.5333,14.452 L 18.672,14.5947 L 18.7867,14.7453 L 18.876,14.8987 L 18.94,15.056 L 18.9787,15.212 L 18.9933,15.364 L 18.9853,15.5093 L 18.956,15.648 L 18.9067,15.7747 L 18.8373,15.8893 L 18.7547,15.9893 L 18.6573,16.0733 L 18.548,16.14 L 18.4307,16.188 L 18.308,16.2173 L 18.1827,16.228 L 18.1707,16.1147 L 18.1387,16.0053 L 18.084,15.9 L 18.0093,15.804 L 17.9147,15.716 L 17.804,15.6413 L 17.6747,15.5813 L 17.532,15.5373 L 17.3787,15.5093 L 17.2147,15.5027 L 17.044,15.516 L 16.8707,15.552 L 16.6947,15.608 L 16.52,15.688 L 16.352,15.7893 L 16.1933,15.9147 L 16.044,16.06 L 15.9093,16.228 L 15.792,16.4133 L 15.6947,16.6187 L 15.62,16.84 L 15.572,17.0747 L 15.5507,17.3227 L 15.5573,17.58 L 15.596,17.8427 L 15.6667,18.1107 L 15.7707,18.3787 L 15.9093,18.6453 L 16.0813,18.904 L 16.288,19.156 L 16.528,19.3933 L 16.8,19.616 L 17.104,19.8187 L 17.436,20.0013 L 17.7973,20.156 L 18.1827,20.2853 L 18.5893,20.3813 L 19.0147,20.4453 L 19.456,20.472 L 19.9093,20.464 L 20.3707,20.4147 L 20.8333,20.3267 L 21.296,20.196 L 21.7533,20.0253 L 22.2,19.8133 L 22.6307,19.56 L 23.044,19.2653 L 23.4307,18.932 L 23.7893,18.5613 L 24.1147,18.1547 L 24.4027,17.7147 L 24.648,17.2453 L 24.848,16.748 L 25.0013,16.228 L 25.1013,15.6867 L 25.1453,15.132 L 25.1347,14.5653 L 25.064,13.992 L 24.9333,13.4173 L 24.7427,12.8467 L 24.492,12.284 L 24.1787,11.736 L 23.8067,11.2067 L 23.376,10.7027 L 22.8893,10.2267 L 22.3493,9.78667 L 21.7573,9.384 L 21.1187,9.02667 L 20.4373,8.716 L 19.7173,8.45867 L 18.964,8.256 L 18.1827,8.11333 L 17.3787,8.032 L 16.56,8.01467 L 15.7307,8.06267 L 14.9,8.17867 L 14.0733,8.36267 L 13.2573,8.61467 L 12.4613,8.93467 L 11.6893,9.32133 L 10.9493,9.77333 L 10.2493,10.2867 L 9.59733,10.8627 L 8.996,11.4947 L 8.45467,12.1787 L 7.97867,12.912 L 7.57067,13.6893 L 7.23867,14.5053 L 6.988,15.3533 L 6.81867,16.228 L 6.73467,17.1213 L 6.74133,18.028 L 6.84,18.94 L 7.028,19.8507 L 7.30933,20.752 L 7.684,21.6373 L 8.14933,22.4973 L 8.70267,23.3267 L 9.34267,24.1173 L 10.0653,24.86 L 10.8667,25.552 L 11.7427,26.1827 L 12.6853,26.748 L 13.6907,27.24 L 14.7507,27.6573 L 15.8573,27.9907 L 17.004,28.24 L 18.1827,28.3987 L 19.3813,28.464 L 20.5933,28.4347 L 21.8093,28.3107 L 23.0187,28.088 L 24.212,27.7693 L 25.38,27.3533 L 26.5107,26.844 L 27.5973,26.2413 L 28.628,25.5507 L 29.596,24.7747 L 30.4907,23.92 L 31.304,22.9893 L 32.0293,21.9907 L 32.6587,20.9293 L 33.184,19.8147 L 33.6013,18.6547 L 33.9053,17.4547 L 34.092,16.228 L 34.1573,14.98 L 34.0987,13.7227 L 33.9147,12.4653 L 33.6067,11.216 L 33.1733,9.988 L 32.6173,8.78933 L 31.9387,7.63067 L 31.144,6.52 L 30.236,5.46933 L 29.22,4.48667 L 28.104,3.58133 L 26.8947,2.75867 L 25.5987,2.03067 L 24.228,1.40133 L 22.7907,0.88 L 21.296,0.468 L 19.756,0.173333 Z M 18.1827,32.456 L 17.536,32.4453 L 16.8893,32.4147 L 16.244,32.364 L 15.6013,32.292 L 14.9627,32.2 L 14.328,32.0867 L 13.6973,31.9547 L 13.0733,31.8027 L 12.456,31.6293 L 11.8453,31.4387 L 11.2427,31.2267 L 10.648,30.9973 L 10.064,30.748 L 9.48933,30.4813 L 8.92667,30.196 L 8.376,29.8933 L 7.83733,29.5733 L 7.31067,29.236 L 6.79867,28.8827 L 6.30133,28.512 L 5.81733,28.1253 L 5.348,27.7227 L 4.896,27.3053 L 4.46,26.8747 L 4.04267,26.4293 L 3.64267,25.972 L 3.26133,25.5013 L 2.89867,25.0187 L 2.556,24.5253 L 2.23333,24.0213 L 1.932,23.5067 L 1.65067,22.984 L 1.39067,22.4507 L 1.152,21.9107 L 0.934667,21.364 L 0.74,20.8093 L 0.566667,20.2507 L 0.417333,19.6853 L 0.290667,19.116 L 0.185333,18.5427 L 0.104,17.9667 L 0.0466667,17.388 L 0.012,16.808 L 0,16.228 L 0.194667,14.8227 L 0.524,13.448 L 0.984,12.1147 L 1.57067,10.8307 L 2.276,9.608 L 3.09067,8.452 L 4.012,7.372 L 5.028,6.376 L 6.128,5.46933 L 7.30667,4.65867 L 8.54933,3.94933 L 9.848,3.344 L 11.1907,2.848 L 12.568,2.46 L 13.9667,2.18533 L 15.376,2.02133 L 16.784,1.96933 L 18.1827,2.028 L 19.5573,2.19467 L 20.9013,2.46533 L 22.2013,2.83867 L 23.4507,3.30667 L 24.6387,3.86933 L 25.7587,4.51467 L 26.8,5.24133 L 27.76,6.04133 L 28.628,6.904 L 29.4013,7.82533 L 30.0773,8.79333 L 30.648,9.804 L 31.1133,10.8453 L 31.472,11.9107 L 31.72,12.9893 L 31.86,14.0747 L 31.892,15.1573 L 31.82,16.228 L 31.6413,17.2787 L 31.3627,18.3013 L 30.9893,19.2907 L 30.5227,20.236 L 29.9693,21.1333 L 29.336,21.9747 L 28.6293,22.756 L 27.8547,23.4707 L 27.0213,24.1173 L 26.136,24.688 L 25.2067,25.1827 L 24.2427,25.596 L 23.252,25.9293 L 22.2413,26.1813 L 21.2213,26.3507 L 20.1987,26.4373 L 19.184,26.4427 L 18.1827,26.3707 L 17.2027,26.2187 L 16.252,25.9947 L 15.3387,25.6973 L 14.468,25.3347 L 13.6453,24.908 L 12.8787,24.4253 L 12.1707,23.8893 L 11.5267,23.3067 L 10.9493,22.6813 L 10.444,22.0227 L 10.0107,21.3333 L 9.652,20.6227 L 9.37067,19.8947 L 9.16533,19.1573 L 9.03467,18.4147 L 8.98,17.676 L 9,16.944 L 9.09067,16.228 L 9.25067,15.5293 L 9.47733,14.8573 L 9.76667,14.2147 L 10.1133,13.6067 L 10.5147,13.036 L 10.9653,12.5093 L 11.4587,12.0253 L 11.992,11.592 L 12.5573,11.2067 L 13.1507,10.8747 L 13.764,10.596 L 14.3947,10.372 L 15.0333,10.2013 L 15.6773,10.0853 L 16.3187,10.0227 L 16.9547,10.012 L 17.5773,10.052 L 18.1827,10.1427 L 18.7653,10.2773 L 19.3227,10.456 L 19.8493,10.6747 L 20.3413,10.932 L 20.796,11.2227 L 21.2133,11.5427 L 21.5853,11.8893 L 21.9147,12.256 L 22.2,12.6413 L 22.4387,13.04 L 22.6293,13.448 L 22.7747,13.8613 L 22.8747,14.2747 L 22.928,14.6853 L 22.9387,15.0893 L 22.908,15.484 L 22.836,15.864 L 22.728,16.228 L 22.5853,16.5707 L 22.4107,16.8933 L 22.2067,17.1893 L 21.9787,17.4613 L 21.7293,17.704 L 21.4627,17.9187 L 21.1813,18.1013 L 20.8907,18.256 L 20.5933,18.3787 L 20.292,18.472 L 19.9933,18.5347 L 19.6973,18.5707 L 19.4093,18.576 L 19.132,18.556 L 18.868,18.5133 L 18.62,18.4467 L 18.3907,18.36 L 18.1827,18.256 L 17.9947,18.136 L 17.8307,18.0027 L 17.692,17.86 L 17.5773,17.7093 L 17.488,17.556 L 17.4253,17.3987 L 17.3853,17.2427 L 17.3707,17.0907 L 17.3787,16.9453 L 17.408,16.8067 L 17.4573,16.68 L 17.5267,16.5653 L 17.6093,16.4653 L 17.7067,16.3813 L 17.816,16.3147 L 17.9333,16.2667 L 18.056,16.2373 L 18.1827,16.228 L 18.1933,16.34 L 18.2253,16.4493 L 18.28,16.5547 L 18.3547,16.6507 L 18.4493,16.7387 L 18.5613,16.8133 L 18.6893,16.8733 L 18.832,16.9173 L 18.9853,16.9453 L 19.1493,16.952 L 19.32,16.9387 L 19.4933,16.904 L 19.6693,16.8467 L 19.844,16.7667 L 20.012,16.6653 L 20.1707,16.54 L 20.32,16.3947 L 20.456,16.228 L 20.572,16.0413 L 20.6693,15.836 L 20.744,15.6147 L 20.792,15.38 L 20.8133,15.132 L 20.8067,14.8747 L 20.768,14.612 L 20.6973,14.344 L 20.5933,14.076 L 20.4547,13.8093 L 20.2827,13.5507 L 20.076,13.2987 L 19.836,13.0613 L 19.564,12.8387 L 19.26,12.636 L 18.928,12.4533 L 18.5667,12.2987 L 18.1827,12.1707 L 17.7747,12.0733 L 17.3493,12.0093 L 16.908,11.9827 L 16.4547,11.9907 L 15.9933,12.04 L 15.5307,12.128 L 15.068,12.2587 L 14.6107,12.4293 L 14.164,12.6413 L 13.7333,12.8947 L 13.32,13.1893 L 12.9333,13.5227 L 12.5747,13.8933 L 12.2493,14.3 L 11.9613,14.74 L 11.716,15.2093 L 11.516,15.7067 L 11.364,16.228 L 11.2627,16.768 L 11.2187,17.3227 L 11.2293,17.8893 L 11.3,18.4627 L 11.4307,19.0373 L 11.6213,19.608 L 11.872,20.1707 L 12.1853,20.7187 L 12.5573,21.248 L 12.988,21.752 L 13.4747,22.228 L 14.016,22.668 L 14.6067,23.0707 L 15.2453,23.428 L 15.9267,23.7387 L 16.6467,23.996 L 17.4,24.1987 L 18.1827,24.3427 L 18.9853,24.4227 L 19.804,24.44 L 20.6333,24.392 L 21.464,24.276 L 22.2907,24.092 L 23.1067,23.84 L 23.9027,23.52 L 24.6747,23.1333 L 25.4147,22.6813 L 26.1147,22.168 L 26.7667,21.592 L 27.368,20.9613 L 27.9093,20.276 L 28.3853,19.5427 L 28.7933,18.7653 L 29.1253,17.9493 L 29.376,17.1013 L 29.5467,16.228 L 29.6293,15.3333 L 29.6227,14.4267 L 29.524,13.5147 L 29.336,12.604 L 29.0547,11.7027 L 28.68,10.8187 L 28.2147,9.95733 L 27.6613,9.128 L 27.0213,8.33733 L 26.2987,7.59467 L 25.4973,6.90267 L 24.6227,6.272 L 23.6787,5.70667 L 22.6733,5.21467 L 21.6133,4.79733 L 20.5067,4.464 L 19.36,4.21467 L 18.1827,4.05733 L 16.9827,3.99067 L 15.7707,4.02 L 14.5547,4.144 L 13.3453,4.36667 L 12.152,4.68533 L 10.9853,5.10133 L 9.85333,5.61067 L 8.76667,6.21333 L 7.736,6.904 L 6.768,7.68 L 5.87333,8.53467 L 5.06,9.46533 L 4.33467,10.464 L 3.70533,11.5253 L 3.18,12.64 L 2.76267,13.8 L 2.45867,15 L 2.27333,16.228 L 2.20667,17.4747 L 2.26533,18.732 L 2.44933,19.9893 L 2.75733,21.2387 L 3.19067,22.4667 L 3.74667,23.6653 L 4.42533,24.824 L 5.22,25.9347 L 6.128,26.9853 L 7.144,27.968 L 8.26,28.8733 L 9.46933,29.696 L 10.7653,30.424 L 12.136,31.0533 L 13.5733,31.5747 L 15.068,31.9867 L 16.608,32.2813 Z "/>
	</g>
	<g id="dp_dp022" transform="matrix(-0.976672,0.214735,0.214735,0.976672,85.0622,50.1148)">
		<image id="dp_image023" fill="none" x="-0.666667" y="-0.666667" width="13.152" height="21.492" xlink:href="PageD9BF_images/PageD9BF_008.png"/>
		<path id="dp_path024" fill="#fea0e4" fill-rule="evenodd" stroke="#feda07" stroke-width="1.33333" d="M 2.25067,17.2267 L 0,17.2267 L 0,3.93867 C 0,1.764 1.764,0 3.93867,0 L 8.99867,0 L 8.99867,4.30667 L 3.93867,4.30667 C 3.00667,4.30667 2.25067,5.06267 2.25067,5.99467 Z "/>
	</g>
	<g id="dp_dp025" transform="matrix(0.98927,-0.146102,-0.145024,-0.989428,13.371,68.1663)">
		<image id="dp_image026" fill="none" x="-0.666667" y="-0.666667" width="13.148" height="19.352" xlink:href="PageD9BF_images/PageD9BF_009.png"/>
		<path id="dp_path027" fill="#fea0e4" fill-rule="evenodd" stroke="#feda07" stroke-width="1.33333" d="M 2.24933,15.1147 L 0,15.1147 L 0,3.936 C 0,1.76267 1.76267,0 3.936,0 L 8.996,0 L 8.996,3.77867 L 3.936,3.77867 C 3.004,3.77867 2.24933,4.53333 2.24933,5.46533 Z "/>
	</g>
</svg>